<svg xmlns="http://www.w3.org/2000/svg" version="1.1" xmlns:xlink="http://www.w3.org/1999/xlink" xmlns:svgjs="http://svgjs.dev/svgjs" viewBox="0 0 800 800" opacity="1"><defs><linearGradient x1="50%" y1="0%" x2="50%" y2="100%" id="rrreflection-grad"><stop stop-color="hsl(206, 75%, 49%)" stop-opacity="1" offset="45%"></stop><stop stop-color="hsl(330, 100%, 56%)" stop-opacity="1" offset="100%"></stop></linearGradient><linearGradient x1="50%" y1="0%" x2="50%" y2="100%" id="rrreflection-grad-2"><stop stop-color="hsl(330, 100%, 56%)" stop-opacity="1" offset="0%"></stop><stop stop-color="hsl(206, 75%, 49%)" stop-opacity="1" offset="45%"></stop></linearGradient><linearGradient gradientTransform="rotate(270)" x1="50%" y1="0%" x2="50%" y2="100%" id="rrreflection-grad-3"><stop stop-color="hsl(206, 75%, 49%)" stop-opacity="1" offset="45%"></stop><stop stop-color="hsl(330, 100%, 56%)" stop-opacity="1" offset="100%"></stop></linearGradient><linearGradient gradientTransform="rotate(270)" x1="50%" y1="0%" x2="50%" y2="100%" id="rrreflection-grad-4"><stop stop-color="hsl(330, 100%, 56%)" stop-opacity="1" offset="0%"></stop><stop stop-color="hsl(206, 75%, 49%)" stop-opacity="1" offset="45%"></stop></linearGradient></defs><g stroke-width="0.5" stroke="url(#rrreflection-grad)" fill="none"><circle r="888" cx="50%" cy="0"></circle><circle r="777" cx="50%" cy="0"></circle><circle r="666" cx="50%" cy="0"></circle><circle r="555" cx="50%" cy="0"></circle><circle r="444" cx="50%" cy="0"></circle><circle r="333" cx="50%" cy="0"></circle><circle r="222" cx="50%" cy="0"></circle><circle r="111" cx="50%" cy="0"></circle></g><g stroke-width="0.5" stroke="url(#rrreflection-grad-2)" fill="none"><circle r="888" cx="50%" cy="100%"></circle><circle r="777" cx="50%" cy="100%"></circle><circle r="666" cx="50%" cy="100%"></circle><circle r="555" cx="50%" cy="100%"></circle><circle r="444" cx="50%" cy="100%"></circle><circle r="333" cx="50%" cy="100%"></circle><circle r="222" cx="50%" cy="100%"></circle><circle r="111" cx="50%" cy="100%"></circle></g><g stroke-width="0.5" stroke="url(#rrreflection-grad-3)" fill="none"><circle r="888" cx="0" cy="50%"></circle><circle r="777" cx="0" cy="50%"></circle><circle r="666" cx="0" cy="50%"></circle><circle r="555" cx="0" cy="50%"></circle><circle r="444" cx="0" cy="50%"></circle><circle r="333" cx="0" cy="50%"></circle><circle r="222" cx="0" cy="50%"></circle><circle r="111" cx="0" cy="50%"></circle></g><g stroke-width="0.5" stroke="url(#rrreflection-grad-4)" fill="none"><circle r="888" cx="100%" cy="50%"></circle><circle r="777" cx="100%" cy="50%"></circle><circle r="666" cx="100%" cy="50%"></circle><circle r="555" cx="100%" cy="50%"></circle><circle r="444" cx="100%" cy="50%"></circle><circle r="333" cx="100%" cy="50%"></circle><circle r="222" cx="100%" cy="50%"></circle><circle r="111" cx="100%" cy="50%"></circle></g></svg>